<svg xmlns="http://www.w3.org/2000/svg" viewBox="0 0 15.49 21"><defs><style>.cls-1{fill:#dfa628;}</style></defs><title>bee-yellow</title><g id="Layer_2" data-name="Layer 2"><g id="Layer_1-2" data-name="Layer 1"><polygon class="cls-1" points="6.16 20.41 4.68 19.95 5.19 21 5.19 21 6.16 20.41"/><polygon class="cls-1" points="7.94 19.34 3.76 18.02 4.26 19.07 6.97 19.92 7.94 19.34"/><polygon class="cls-1" points="9.75 18.25 2.82 16.06 3.33 17.12 8.78 18.83 9.75 18.25"/><path class="cls-1" d="M12.51,4.24c.22-.7,1.83-1.49,2.37-.77.28.37.8-.11.53-.48-.89-1.19-3.2-.14-3.58,1a.36.36,0,0,0,.68.22Z"/><path class="cls-1" d="M8.45,3C8.81,1.78,7.51-.4,6.1.06c-.43.15-.27.84.16.7C7.12.47,8,2.05,7.77,2.74A.36.36,0,0,0,8.45,3Z"/><path class="cls-1" d="M9.06,14.09a10.53,10.53,0,0,0,1,2.83c.41.72,1.28,1.87,2.25,1.71s1-2.12,1.05-2.86a7.74,7.74,0,0,0-.82-3.19A13.57,13.57,0,0,0,9.38,8.05,11.27,11.27,0,0,0,9.06,14.09Z"/><path class="cls-1" d="M1,11.88c-.43.6-1.45,2.27-.78,2.94s2.07.24,2.82-.11a10.45,10.45,0,0,0,2.55-1.83,11.28,11.28,0,0,0,3.11-5A13.59,13.59,0,0,0,3.39,9.79,7.5,7.5,0,0,0,1,11.88Z"/><path class="cls-1" d="M8.11,10.91a12.56,12.56,0,0,1-2.22,2.66c-.24.21-.49.43-.75.64l3.49,1.1a15.29,15.29,0,0,1-.39-1.77A12.25,12.25,0,0,1,8.11,10.91Z"/><path class="cls-1" d="M9.3,7.08h0a.3.3,0,0,1,.14.1A12.4,12.4,0,0,1,11.14,8.9a3,3,0,0,0,.78-1.24,2.88,2.88,0,1,0-5.5,0,12.89,12.89,0,0,1,2.71-.54A.25.25,0,0,1,9.3,7.08Z"/><path class="cls-1" d="M4.25,14.86a8.06,8.06,0,0,1-1,.57l6.33,2A8.24,8.24,0,0,1,9,16.35Z"/></g></g></svg>