<svg xmlns="http://www.w3.org/2000/svg" viewBox="0 0 177.95 162.75"><defs><style>.cls-1{fill:#231f20;}.cls-2{fill:#dfa628;}.cls-3,.cls-4{fill:none;stroke-miterlimit:10;}.cls-3{stroke:#dfa628;}.cls-4{stroke:#231f20;}</style></defs><title>screenshot1</title><g id="Layer_2" data-name="Layer 2"><g id="Layer_1-2" data-name="Layer 1"><path class="cls-1" d="M19.36,106.48c0-.36,0-.73,0-1l-9,10.43-9-10.44c0,.28,0,.67,0,1v17.28H0V101.63L9.59,112.9c.25.27.59.66.81.91.24-.25.58-.65.82-.91l9.61-11.27v22.11H19.36Z"/><path class="cls-1" d="M36.57,123.74h-1.5v-9.85l-9.65-11,1.38-.75,9,10.5,9.06-10.5,1.32.76-9.64,11Z"/><path class="cls-1" d="M77.59,113.55H62.26v10.19H60.78v-21.4h1.48v9.9H77.6v-9.9h1.48v21.4H77.6Z"/><path class="cls-1" d="M96.77,124c-6.88,0-11.56-4.91-11.56-10.94s4.69-11,11.56-11,11.63,4.9,11.63,11S103.7,124,96.77,124Zm0-20.57a9.66,9.66,0,0,0-10,9.63c0,5.28,4.2,9.59,10,9.59s10.11-4.31,10.11-9.58S102.68,103.43,96.77,103.43Z"/><path class="cls-1" d="M116,106.59v17.15h-1.48V101.65l18.7,19.24c0-.46,0-.94,0-1.43V102.34h1.47v22L116,105.18C116,105.63,116,106.13,116,106.59Z"/><path class="cls-1" d="M143.65,122.37h9.78v1.37H142.18v-21.4h11.24v1.34h-9.77v8.53h9.45v1.29h-9.45Z"/><path class="cls-1" d="M168.31,123.74h-1.5v-9.85l-9.65-11,1.38-.75,9,10.5,9.06-10.5,1.32.76-9.64,11Z"/><path class="cls-1" d="M24.3,143.83c2.89,0,4.39-.08,5.42-.16a.71.71,0,0,1,.08.93l-1.69.27c-2.12.34-3.23,2.26-4.43,4.19s-2.84,4.19-4.46,6.42c.66,1,.89,1.35,1.27,1.93,2,3.11,4,3.46,5.58,3.46a4.92,4.92,0,0,0,3.46-1.39.53.53,0,0,1,.43.7,7.4,7.4,0,0,1-6.12,2.57,6.88,6.88,0,0,1-4.12-1.11,23.1,23.1,0,0,1-2.34-3.54c-2.2,2.46-5,4.65-8.39,4.65-5.42,0-7.54-3.88-7.54-6.92,0-4,2.81-6.35,6.23-8.39-1.38-1-3-2.46-3-4.65a5.32,5.32,0,0,1,5.39-5.2c2.92,0,5,1.93,5,4.58s-2,3.54-3.89,4.62a26.32,26.32,0,0,1,7.35,7.54,56.39,56.39,0,0,0,4-6.73,7.25,7.25,0,0,0,.85-2.12c0-.27-.39-.5-1-.58l-1.31-.15a.63.63,0,0,1,.08-.92Zm-20,10.84a5.51,5.51,0,0,0,5.73,5.81,9,9,0,0,0,6.61-3.54,27.39,27.39,0,0,0-8-8.69C6.76,149.21,4.34,151.56,4.34,154.67Zm2.84-12.81c0,1.62,1.08,3,3.16,4.2a4.73,4.73,0,0,0,2.3-4c0-1.7-.84-3.35-2.69-3.35A3,3,0,0,0,7.18,141.86Z"/><path class="cls-1" d="M50.88,148.67c-.65,0-.69.12-.69.93v7.19c0,2.23.27,4.27,2.81,4.27a3.06,3.06,0,0,0,1-.19c.35-.12.85-.54,1-.54.31,0,.46.42.39.65a5.34,5.34,0,0,1-4,1.77c-3.31,0-4-1.84-4-4.15v-8.81c0-1,0-1.12-.81-1.12H45.46a.62.62,0,0,1-.11-.8,7.73,7.73,0,0,0,2.46-1.2,9.34,9.34,0,0,0,1.61-2.27c.2-.07.66-.07.81.2v1.73c0,.69,0,.73.69.73h4.27a1.21,1.21,0,0,1,0,1.61Z"/><path class="cls-1" d="M61.08,140.52c0-2.27,0-2.5-1.19-3.19l-.39-.24a.58.58,0,0,1,0-.76,28,28,0,0,0,4.16-1.62.42.42,0,0,1,.38.23c0,1.15-.11,3.08-.11,4.77v8.08c0,.34,0,.65.15.73a8.73,8.73,0,0,1,5.2-2c3.65,0,5,2.27,5,5v6.43c0,2.77.07,3.19,1.46,3.34l1,.12a.67.67,0,0,1-.08,1c-1.38-.08-2.5-.12-3.85-.12s-2.53,0-3.57.12a.67.67,0,0,1-.08-1l.77-.12c1.42-.23,1.46-.57,1.46-3.34V152.4c0-2.46-1.19-4.11-3.65-4.11a4.63,4.63,0,0,0-3,1c-.69.57-.8.77-.8,2.11v6.47c0,2.77.07,3.15,1.46,3.34l.81.12c.27.15.19.84-.08,1-1.15-.08-2.27-.12-3.62-.12s-2.54,0-3.77.12a.67.67,0,0,1-.07-1l1-.12c1.42-.15,1.46-.57,1.46-3.34Z"/><path class="cls-1" d="M84.43,152.37c-1,0-1,.07-1,1,0,3.89,2.27,7.2,6.39,7.2a4.15,4.15,0,0,0,3.54-1.89.51.51,0,0,1,.69.46,6.72,6.72,0,0,1-6,3.58,6.88,6.88,0,0,1-5.58-2.54,8.17,8.17,0,0,1-1.61-5c0-4.73,3.11-8.69,7.73-8.69,3.31,0,5.46,2.27,5.46,4.58a2.36,2.36,0,0,1-.15,1c-.12.23-.66.27-2.27.27Zm2.39-1.16c2.84,0,3.69-.15,4-.38.11-.08.23-.23.23-.73,0-1.08-.73-2.43-3-2.43s-4.23,2.08-4.27,3.35c0,.08,0,.19.27.19Z"/><path class="cls-1" d="M111,140.52c0-2.27,0-2.5-1.2-3.19l-.38-.24a.58.58,0,0,1,0-.76,36.39,36.39,0,0,0,4.19-1.62.43.43,0,0,1,.39.23c-.08,1.35-.16,3.08-.16,4.77V147c0,.65.16.81.39.81a8.85,8.85,0,0,1,4.42-1.27,7.21,7.21,0,0,1,7.35,7.54c0,5.11-3.69,8.69-8.85,8.69a11.05,11.05,0,0,1-3.27-.5,8.34,8.34,0,0,0-1.61-.5,1.2,1.2,0,0,0-.81.58s-.08,0-.16,0a.43.43,0,0,1-.38-.23c0-.54.08-1.27.08-3.27ZM113.86,157a5.35,5.35,0,0,0,1,3.35,3.68,3.68,0,0,0,2.93,1.27c3.61,0,5-3.08,5-6.39,0-4-2-7-5.85-7a5,5,0,0,0-2.62.62c-.38.27-.46.69-.46,2.19Z"/><path class="cls-1" d="M134.29,152.37c-1,0-1,.07-1,1,0,3.89,2.27,7.2,6.39,7.2a4.16,4.16,0,0,0,3.54-1.89.51.51,0,0,1,.69.46,6.72,6.72,0,0,1-6,3.58,6.88,6.88,0,0,1-5.58-2.54,8.17,8.17,0,0,1-1.61-5c0-4.73,3.11-8.69,7.73-8.69,3.31,0,5.46,2.27,5.46,4.58a2.54,2.54,0,0,1-.15,1c-.12.23-.66.27-2.27.27Zm2.39-1.16c2.84,0,3.69-.15,4-.38.11-.08.23-.23.23-.73,0-1.08-.73-2.43-3-2.43s-4.24,2.08-4.27,3.35c0,.08,0,.19.27.19Z"/><path class="cls-1" d="M151.45,152.37c-1,0-1,.07-1,1,0,3.89,2.27,7.2,6.39,7.2a4.16,4.16,0,0,0,3.54-1.89.51.51,0,0,1,.69.46,6.72,6.72,0,0,1-6,3.58,6.88,6.88,0,0,1-5.58-2.54,8.18,8.18,0,0,1-1.62-5c0-4.73,3.12-8.69,7.74-8.69,3.31,0,5.46,2.27,5.46,4.58a2.54,2.54,0,0,1-.15,1c-.12.23-.66.27-2.27.27Zm2.38-1.16c2.85,0,3.7-.15,4-.38.11-.08.23-.23.23-.73,0-1.08-.73-2.43-3-2.43s-4.23,2.08-4.27,3.35c0,.08,0,.19.27.19Z"/><path class="cls-1" d="M174.15,147.21a9.16,9.16,0,0,1,.61,3.12.66.66,0,0,1-.92.11c-.65-1.69-1.81-2.81-3.38-2.81A2.28,2.28,0,0,0,168,150c0,1.58,1.62,2.42,3,3.19,2,1.16,3.92,2.47,3.92,5.2,0,2.92-2.69,4.38-5.54,4.38a6.4,6.4,0,0,1-4.12-1.15,11.33,11.33,0,0,1-.46-3.89.66.66,0,0,1,.89,0c.65,2.12,1.88,4,4.07,4a2.37,2.37,0,0,0,2.58-2.47c0-1.76-1.54-2.73-3-3.53-2.23-1.27-3.81-2.62-3.81-4.74,0-2.8,2.31-4.38,5.23-4.38A6.81,6.81,0,0,1,174.15,147.21Z"/><polygon class="cls-2" points="58.76 48.93 58.76 33.06 44.18 24.64 29.61 33.06 29.61 48.93 44.18 57.34 58.76 48.93"/><polygon class="cls-3" points="87.69 48.93 87.69 33.06 73.11 24.64 58.54 33.06 58.54 48.93 73.11 57.34 87.69 48.93"/><polygon class="cls-3" points="73.33 73.31 73.33 57.44 58.76 49.02 44.18 57.44 44.18 73.31 58.76 81.72 73.33 73.31"/><polygon class="cls-1" points="116.46 33.19 116.46 48.98 130.96 57.34 145.45 48.98 145.45 33.19 130.96 24.82 116.46 33.19"/><polygon class="cls-4" points="87.69 33.19 87.69 48.98 102.18 57.34 116.68 48.98 116.68 33.19 102.18 24.82 87.69 33.19"/><polygon class="cls-4" points="101.97 8.95 101.97 24.73 116.46 33.1 130.96 24.73 130.96 8.95 116.46 0.58 101.97 8.95"/></g></g></svg>